<?xml version="1.0" encoding="UTF-8" standalone="no"?>
<svg xmlns="http://www.w3.org/2000/svg" xmlns:svg="http://www.w3.org/2000/svg" width="761" height="761" viewBox="0 0 761 761" version="1.2" id="svg1">
  <defs id="defs1"></defs>
  <g id="layer1">
    <rect style="fill:#000000;fill-opacity:1;stroke:none;stroke-width:1.25382;stroke-linecap:square;stroke-opacity:1" id="rect1" width="201.34792" height="201.34792" x="0" y="0"></rect>
    <ellipse style="fill:#f14d0a;fill-opacity:1;stroke-width:0.796358" id="path2-50-4" cx="100.67396" cy="100.67396" rx="99.21875" ry="57.179878"></ellipse>
    <path id="path12" style="font-size:19.7556px;font-family:'Tactic Sans Extended';-inkscape-font-specification:'Tactic Sans Extended';fill:#000000;fill-opacity:1;stroke-width:0.988944" d="M 31.300136,66.483413 V 134.8645 h 17.191729 v -28.13328 h 42.626711 v 9.181 c 0,6.51237 1.530967,11.2997 4.591797,14.36052 3.12595,3.06083 7.910707,4.59176 14.357957,4.59176 H 151.098 c 6.44726,0 11.20006,-1.53093 14.26084,-4.59176 3.12596,-3.06082 4.68894,-7.84815 4.68894,-14.36052 v -8.69297 h -16.60663 v 5.56789 c 0,2.99571 -0.58576,5.08045 -1.75799,6.2527 -1.17226,1.17223 -3.25699,1.75799 -6.25269,1.75799 h -29.10944 c -2.93057,0 -5.01532,-0.58576 -6.2527,-1.75799 -1.17224,-1.17225 -1.75803,-3.25699 -1.75803,-6.2527 V 88.560815 c 0,-0.03464 0.002,-0.06378 0.003,-0.0969 v -21.92665 c -5.55969,0.260096 -9.76991,1.764621 -12.602503,4.538163 -3.060809,3.060776 -4.591796,7.848096 -4.591796,14.360482 v 6.446915 H 48.491865 v -25.39921 z m 80.400994,0 v 14.807693 c 1.18743,-0.491018 2.72321,-0.741022 4.6199,-0.741022 h 29.10944 c 2.9957,0 5.08043,0.585801 6.25269,1.758001 1.17223,1.172286 1.75799,3.257031 1.75799,6.25273 v 4.883056 h 16.60663 V 85.43571 c 0,-6.512386 -1.56298,-11.299707 -4.68894,-14.360483 -3.06078,-3.060828 -7.81358,-4.591814 -14.26084,-4.591814 z"></path>
  </g>
  <title>Title</title>
</svg>
